<?xml version="1.0" encoding="utf-8"?>
<!-- Generator: Adobe Illustrator 16.0.0, SVG Export Plug-In . SVG Version: 6.00 Build 0)  -->
<!DOCTYPE svg PUBLIC "-//W3C//DTD SVG 1.1//EN" "http://www.w3.org/Graphics/SVG/1.1/DTD/svg11.dtd">
<svg version="1.1" id="Layer_1" xmlns="http://www.w3.org/2000/svg" xmlns:xlink="http://www.w3.org/1999/xlink" x="0px" y="0px"
	 width="512px" height="512px" viewBox="0 0 512 512" enable-background="new 0 0 512 512" xml:space="preserve">
<polygon fill="#FFFBDA" points="171.5,125.5 165.756,416.341 136.5,426.5 171.5,460.5 190.623,467.545 186.5,481.5 328.5,487.5 
	328.5,461.5 358.5,451.5 366.5,423.5 333.5,422.5 338.5,125.5 282.5,142.5 256.001,138.5 "/>
<polygon fill="#FFFBDA" points="251.5,36.5 226.5,69.5 234.997,98.506 249,108.523 269.5,108.523 284.5,95.5 277.103,69.683 
	270.5,46.5 "/>
<path d="M375.444,416.341h-29.244v-227v-0.064c0.031-0.406,0.047-0.815,0.046-1.229c0.001-0.277-0.016-0.555-0.049-0.831v-67.538
	c0-3.866-3.135-7-7.001-6.999c-1.543,0-3.043,0.51-4.266,1.451c-0.23,0.169-21.93,16.387-71.93,17.99v-9.268
	c21.46-3.854,35.733-24.375,31.88-45.835c-0.977-5.439-3.084-10.612-6.187-15.185l-26.923-39.758
	c-2.168-3.201-6.521-4.038-9.721-1.87c-0.736,0.499-1.371,1.134-1.87,1.87l-26.924,39.758c-12.239,18.044-7.534,42.594,10.51,54.833
	c4.587,3.111,9.777,5.222,15.234,6.194v9.318c-25.239-0.63-42.966-5.137-53.634-8.968c-12.256-4.4-18.05-8.852-18.233-9
	c-3.017-2.417-7.423-1.931-9.84,1.086c-0.995,1.242-1.537,2.786-1.537,4.377v296.667h-29.2c-3.866,0-7,3.134-7,7
	c0,1.137,0.276,2.256,0.806,3.261l8.569,16.28c7.437,14.186,21.713,23.485,37.693,24.555V486c0,3.866,3.134,7,7,7h144.753
	c3.865,0,7-3.134,7-7v-18.563c15.979-1.069,30.255-10.369,37.691-24.554l8.57-16.281c1.801-3.421,0.487-7.654-2.934-9.455
	C377.7,416.617,376.58,416.341,375.444,416.341L375.444,416.341z M237.933,102.031c-8.636-8.656-9.929-22.216-3.085-32.348
	l21.128-31.2l21.127,31.2c7.902,11.657,4.858,27.513-6.8,35.416c-2.238,1.517-4.703,2.668-7.303,3.411V103c0-3.866-3.134-7-7-7
	s-7,3.134-7,7v5.523C244.816,107.344,241.004,105.108,237.933,102.031z M179.756,173.281v-41.423
	c12.887,6.2,37.147,14.4,75.241,14.4c39,0,64.039-8.4,77.199-14.593v56.845c-0.256,1.181-1.421,1.931-2.602,1.675
	c-0.795-0.172-1.429-0.771-1.646-1.555c0.015-0.176,0.021-0.354,0.021-0.532c-0.006-9.48-7.695-17.162-17.176-17.156
	c-9.273,0.005-16.865,7.374-17.148,16.642c-0.017,0.192-0.024,0.387-0.024,0.581v66.847c-0.028,1.748-1.469,3.143-3.217,3.115
	c-1.704-0.027-3.081-1.399-3.114-3.104l0.03-19.227c0.073-9.448-7.528-17.166-16.976-17.238
	c-9.448-0.072-17.167,7.528-17.239,16.977c0,0.087,0,0.174,0,0.262v117.128c0,3.527-2.858,6.387-6.386,6.387
	c-3.526,0-6.386-2.859-6.386-6.387l0.009-150.733c0.069-9.448-7.534-17.164-16.982-17.232s-17.164,7.535-17.232,16.983
	c-0.001,0.087-0.001,0.174,0,0.262l0.031,19.2c-0.02,1.749-1.452,3.15-3.201,3.131c-1.707-0.019-3.092-1.388-3.13-3.094
	l0.138-26.341c-0.013-9.475-7.692-17.152-17.167-17.161h-0.092c-1.661-0.115-2.949-1.495-2.951-3.159L179.756,173.281z
	 M179.756,191.64c1.044,0.2,2.104,0.302,3.166,0.305h0.092c1.648,0.11,2.934,1.47,2.951,3.121l-0.138,26.342
	c-0.07,9.48,7.559,17.222,17.039,17.291c9.48,0.07,17.222-7.559,17.292-17.04c0-0.087,0-0.175,0-0.263l-0.031-19.2
	c0.03-1.716,1.447-3.083,3.163-3.052c1.673,0.03,3.021,1.379,3.052,3.052l-0.009,150.732c0,11.26,9.127,20.387,20.386,20.387
	s20.386-9.127,20.386-20.387l0,0V235.8c0.027-1.716,1.441-3.085,3.157-3.058c1.673,0.026,3.024,1.373,3.058,3.046l-0.03,19.228
	c0.072,9.48,7.816,17.107,17.297,17.034c9.377-0.071,16.962-7.656,17.033-17.034v-66.437c0.012-0.16,0.018-0.32,0.018-0.481
	c0.001-1.749,1.42-3.165,3.168-3.164c1.489,0.001,2.776,1.039,3.092,2.494c-0.018,0.205-0.027,0.412-0.027,0.62
	c-0.059,8.881,7.094,16.128,15.975,16.187c0.788,0.005,1.575-0.048,2.355-0.158v212.263H179.756V191.64z M321.377,479H190.623
	v-11.455h130.754V479z M360.677,436.362c-5.548,10.58-16.515,17.201-28.461,17.183H179.78c-11.946,0.019-22.914-6.603-28.461-17.184
	l-3.169-6.021h215.7L360.677,436.362z"/>
</svg>
