<?xml version="1.0" encoding="utf-8"?>
<!-- Generator: Adobe Illustrator 16.0.0, SVG Export Plug-In . SVG Version: 6.00 Build 0)  -->
<!DOCTYPE svg PUBLIC "-//W3C//DTD SVG 1.1//EN" "http://www.w3.org/Graphics/SVG/1.1/DTD/svg11.dtd">
<svg version="1.1" id="Capa_1" xmlns="http://www.w3.org/2000/svg" xmlns:xlink="http://www.w3.org/1999/xlink" x="0px" y="0px"
	 width="612px" height="410px" viewBox="0 198.5 612 410" enable-background="new 0 198.5 612 410" xml:space="preserve">
<ellipse fill="#FFFBDA" cx="303.65" cy="398" rx="273.15" ry="83.5"/>
<ellipse fill="#FFFBDA" cx="297.25" cy="345.55" rx="271.25" ry="58.95"/>
<path d="M558.623,445.904 M574.607,428.707c1.397-3.061,2.183-6.243,2.193-9.548V347.8h-0.174
	c-3.651-59.445-247.248-61.2-275.227-61.2s-271.574,1.754-275.227,61.2H26v1.326l0,0l0,0v70.063
	c0.051,19.381,25.062,34.548,62.271,45.839l21.818,5.886c3.988,0.949,8.078,1.867,12.239,2.744
	c20.268,4.365,42.729,7.945,66.657,10.68c0.082,0,0.143,0.04,0.215,0.04c0.02,0,0.04-0.011,0.051-0.011
	c16.3,1.857,33.211,3.315,50.571,4.346c0.133,0,0.245,0.071,0.378,0.071c0.071,0,0.122-0.04,0.193-0.04
	c12.495,0.734,25.153,1.274,37.965,1.561c7.844,0.193,15.544,0.295,23.041,0.295c5.355,0,10.843-0.061,16.382-0.163
	c74.112-1.142,142.8-9.955,190.597-23.612c2.203-0.623,4.355-1.266,6.477-1.908c1.296-0.397,2.622-0.785,3.876-1.183
	c3.692-1.184,7.232-2.397,10.649-3.662c0.592-0.224,1.152-0.448,1.744-0.673c2.887-1.092,5.661-2.224,8.313-3.377
	c0.766-0.336,1.551-0.662,2.295-0.999c2.826-1.274,5.56-2.581,8.089-3.938c1.143-0.602,2.132-1.224,3.203-1.836
	c1.224-0.704,2.448-1.417,3.58-2.142c0.643-0.408,1.407-0.796,2.02-1.203 M574.607,428.707 M97.4,446.475v-49.275
	c9.527,2.57,19.768,4.916,30.601,7.048v49.786c-1.255-0.266-2.55-0.531-3.774-0.796c-5.426-1.193-10.72-2.438-15.779-3.753
	C104.591,448.494,100.929,447.484,97.4,446.475z M282.785,419.026c2.805,0.052,5.609,0.092,8.415,0.122v50.93
	c-13.729-0.133-27.377-0.49-40.801-1.163v-50.888c10.221,0.479,20.492,0.795,30.764,0.979
	C281.703,419.006,282.244,419.017,282.785,419.026z M321.637,418.996c10.271-0.193,20.542-0.51,30.763-0.979v50.888
	c-1.734,0.082-3.396,0.204-5.141,0.286c-0.143,0.01-0.286,0.01-0.438,0.021c-6.845,0.306-13.821,0.53-20.89,0.693
	c-1.102,0.03-2.203,0.041-3.305,0.071c-3.631,0.071-7.344,0.081-11.026,0.122v-50.949c2.805-0.03,5.61-0.07,8.415-0.122
	C320.556,419.017,321.096,419.006,321.637,418.996z M554.064,424.116l-0.285-0.062l-3.713,2.887
	c-5.386,4.192-13.658,8.436-24.266,12.536v-48.521c12.128-4.223,22.45-8.904,30.6-14.035v42.208
	C556.4,420.68,555.584,422.352,554.064,424.116z M423.8,462.57v-50.388c10.516-1.265,20.727-2.703,30.6-4.305v50.001
	C444.73,459.592,434.551,461.162,423.8,462.57z M474.8,453.951v-49.704c10.832-2.132,21.073-4.478,30.6-7.048v49.164
	C496.261,449.025,485.969,451.564,474.8,453.951z M403.4,414.386v50.592c-9.854,1.04-20.053,1.948-30.6,2.703v-50.816
	C383.143,416.181,393.363,415.354,403.4,414.386z M199.4,464.998v-50.612c10.037,0.969,20.258,1.795,30.601,2.479v50.775
	C219.616,466.895,209.375,466.049,199.4,464.998z M179,412.183v50.397c-2.02-0.265-4.121-0.479-6.12-0.754
	c-1.306-0.184-2.55-0.378-3.835-0.562c-5.896-0.847-11.659-1.755-17.31-2.702c-1.133-0.194-2.224-0.398-3.336-0.592v-50.082
	C158.274,409.479,168.484,410.928,179,412.183z M107.916,470.424 M301.4,307c168.188,0,253.256,26.479,254.847,41.677
	c-1.233,6.895-16.891,16.004-44.614,24.572l0,0c-36.088,11.148-92.555,21.358-164.118,24.521c-3.662,0.153-7.313,0.307-11.047,0.429
	c-3.05,0.103-6.109,0.194-9.221,0.275c-8.445,0.194-17.013,0.326-25.847,0.326c-8.833,0-17.4-0.132-25.847-0.326
	c-3.101-0.071-6.16-0.173-9.221-0.275c-3.743-0.112-7.395-0.275-11.047-0.429c-71.563-3.162-128.04-13.372-164.117-24.521l0,0
	c-27.734-8.567-43.381-17.677-44.615-24.572C48.144,333.479,133.212,307,301.4,307z M46.4,419.159v-42.238
	c8.15,5.131,18.473,9.813,30.601,14.035v48.838C57.161,432.357,46.42,424.902,46.4,419.159z"/>
</svg>
