<?xml version="1.0" encoding="utf-8"?>
<!-- Generator: Adobe Illustrator 16.0.0, SVG Export Plug-In . SVG Version: 6.00 Build 0)  -->
<!DOCTYPE svg PUBLIC "-//W3C//DTD SVG 1.1//EN" "http://www.w3.org/Graphics/SVG/1.1/DTD/svg11.dtd">
<svg version="1.1" id="Capa_1" xmlns="http://www.w3.org/2000/svg" xmlns:xlink="http://www.w3.org/1999/xlink" x="0px" y="0px"
	 width="477.864px" height="612.001px" viewBox="67.068 90 477.864 612.001" enable-background="new 67.068 90 477.864 612.001"
	 xml:space="preserve">
<rect x="75.5" y="100.5" fill="#FFFBDA" width="460" height="590"/>
<g>
	<g>
		<path d="M535.949,328.599c4.962,0,8.982-4.021,8.982-8.982V98.983c0-4.877-4.095-8.983-8.982-8.983H76.051
			c-4.888,0-8.983,4.106-8.983,8.983v594.036c0,4.962,4.021,8.982,8.983,8.982h459.896c4.962,0,8.983-4.021,8.983-8.982V362.865
			c0-4.962-4.021-8.983-8.983-8.983c-4.961,0-8.982,4.021-8.982,8.983v321.17H85.033V140.451l30.746,67.642
			c1.458,3.207,4.655,5.265,8.177,5.265h125.155v96.412c0,31.367,25.521,56.888,56.889,56.888s56.888-25.521,56.888-56.888v-96.411
			h125.154c3.522,0,6.719-2.058,8.177-5.265l30.746-67.642v179.165C526.966,324.577,530.988,328.599,535.949,328.599z M306,348.693
			c-21.463,0-38.925-17.46-38.925-38.924c0-21.463,17.462-38.924,38.925-38.924s38.924,17.461,38.924,38.924
			S327.463,348.693,306,348.693z M344.924,268.337c-10.186-9.573-23.877-15.457-38.924-15.457c-15.048,0-28.739,5.885-38.925,15.457
			v-54.979h77.848L344.924,268.337L344.924,268.337z M482.259,195.393H129.74L90,107.964h431.998L482.259,195.393z"/>
	</g>
</g>
<g>
	<g>
		<path d="M306,281.624c-15.519,0-28.146,12.626-28.146,28.145c0,15.519,12.627,28.145,28.146,28.145s28.145-12.626,28.145-28.145
			C334.145,294.25,321.519,281.624,306,281.624z M306,319.949c-5.613,0-10.181-4.566-10.181-10.18s4.565-10.181,10.181-10.181
			c5.614,0,10.18,4.566,10.18,10.181S311.613,319.949,306,319.949z"/>
	</g>
</g>
<g>
	<g>
		<path d="M286.838,521.154H123.957c-4.962,0-8.982,4.021-8.982,8.982v114.975c0,4.962,4.021,8.983,8.982,8.983h162.881
			c4.962,0,8.982-4.021,8.982-8.983V530.137C295.82,525.175,291.8,521.154,286.838,521.154z M277.855,636.129H132.939v-97.011
			h144.916V636.129L277.855,636.129z"/>
	</g>
</g>
<g>
	<g>
		<path d="M248.513,559.479h-86.231c-4.962,0-8.982,4.021-8.982,8.982s4.021,8.983,8.982,8.983h86.231
			c4.962,0,8.982-4.021,8.982-8.983S253.475,559.479,248.513,559.479z"/>
	</g>
</g>
<g>
	<g>
		<path d="M248.513,597.805h-86.231c-4.962,0-8.982,4.021-8.982,8.982s4.021,8.983,8.982,8.983h86.231
			c4.962,0,8.982-4.021,8.982-8.983S253.475,597.805,248.513,597.805z"/>
	</g>
</g>
</svg>
