<?xml version="1.0" encoding="utf-8"?>
<!-- Generator: Adobe Illustrator 16.0.0, SVG Export Plug-In . SVG Version: 6.00 Build 0)  -->
<!DOCTYPE svg PUBLIC "-//W3C//DTD SVG 1.1//EN" "http://www.w3.org/Graphics/SVG/1.1/DTD/svg11.dtd">
<svg version="1.1" id="Lighter" xmlns="http://www.w3.org/2000/svg" xmlns:xlink="http://www.w3.org/1999/xlink" x="0px" y="0px"
	 width="512px" height="512px" viewBox="0 0 512 512" enable-background="new 0 0 512 512" xml:space="preserve">
<path fill="#FFFBDA" stroke="#000000" stroke-miterlimit="10" d="M327.157,29.903l-18.006,45.794c0,0-27.3,19.082-29.899,22.898
	c-2.601,3.816-10.399,57.244-10.399,57.244l53.948,62.58l20.148-52.403l33.801-60.019V62.977L327.157,29.903z"/>
<polygon fill="#FFFBDA" stroke="#000000" stroke-miterlimit="10" points="268.853,265.093 277.338,299.038 364.625,299.038 
	358.564,256 "/>
<polygon fill="#FFFBDA" stroke="#000000" stroke-miterlimit="10" points="143.984,154.771 80.943,191.141 163.381,336.619 
	231.27,301.462 "/>
<rect x="231.27" y="309.948" fill="#FFFBDA" stroke="#000000" stroke-miterlimit="10" width="169.725" height="176.999"/>
<path d="M408.192,290.537h-29.686v-30.72c0-7.139-5.782-12.924-12.925-12.924h-90.468c-7.134,0-12.923,5.786-12.923,12.924v30.72
	h-23.165L156.05,146.444c-1.706-2.968-4.532-5.139-7.841-6.027c-3.304-0.896-6.84-0.436-9.804,1.28l-53.058,30.556
	c-8.525,4.903-14.629,12.829-17.18,22.324c-2.551,9.495-1.258,19.416,3.652,27.933l63.828,110.845
	c6.552,11.382,18.783,18.447,31.926,18.447c6.406,0,12.742-1.697,18.326-4.907l33.693-19.407v142.951
	c0,20.291,16.508,36.795,36.803,36.795h127.917c20.295,0,36.803-16.504,36.803-36.795V303.461
	C421.115,296.319,415.325,290.537,408.192,290.537z M173.002,324.489c-5.127,2.945-12.055,1.008-14.962-4.042L94.208,209.603
	c-1.464-2.537-1.853-5.488-1.089-8.314c0.758-2.822,2.571-5.178,5.113-6.639l41.869-24.112l74.761,129.835L173.002,324.489z
	 M288.037,272.741h64.62v17.796h-64.62V272.741z M395.268,336.646h-72.042v25.849h72.042v107.944
	c0,6.036-4.916,10.946-10.955,10.946H256.392c-6.041,0-10.956-4.91-10.956-10.946V362.494h37.578v-25.849h-37.578v-20.26h29.678
	h90.468h29.687V336.646z"/>
<path d="M266.171,189.321c4.635,6.647,10.494,12.98,17.408,18.821c6.595,5.587,13.385,10.486,20.187,14.566
	c6.63,3.976,14.247,7.931,22.634,11.756c1.668,0.763,3.417,1.133,5.148,1.155c0.203,0.008,0.405,0.013,0.616,0.013
	c3.895,0,7.655-1.771,10.146-4.924c3.153-4.002,3.662-9.478,1.305-13.992c-4.963-9.474-7.47-17.517-7.47-23.905
	c0-2.387,0.564-4.588,1.741-6.764c1.473-2.744,3.441-5.247,5.854-7.448c3.152-2.874,6.764-5.842,10.726-8.819
	c4.425-3.322,8.846-6.888,13.523-10.917c4.73-4.093,9.12-8.513,13.074-13.148c4.477-5.277,8.112-11.632,10.797-18.882
	c2.71-7.293,4.088-15.276,4.088-23.72c0-10.007-1.448-19.597-4.291-28.502c-2.834-8.849-6.664-16.767-11.386-23.539
	c-4.609-6.621-10.469-12.954-17.392-18.808c-6.539-5.545-13.329-10.447-20.2-14.587c-6.655-3.989-14.277-7.94-22.643-11.748
	c-1.599-0.729-3.266-1.099-4.933-1.146c-3.946-0.224-7.823,1.383-10.485,4.468c-3.417,3.972-4.105,9.615-1.732,14.29
	c4.916,9.685,7.414,17.775,7.414,24.043c0,2.382-0.573,4.592-1.731,6.764c-1.481,2.756-3.398,5.191-5.872,7.444
	c-3.17,2.899-6.781,5.863-10.718,8.818c-4.502,3.377-9.047,7.048-13.522,10.912c-4.713,4.071-9.103,8.491-13.066,13.144
	c-4.459,5.256-8.103,11.605-10.805,18.882c-2.71,7.29-4.08,15.272-4.08,23.733c0,10.021,1.439,19.61,4.282,28.502
	C257.623,174.648,261.457,182.571,266.171,189.321z M278.81,122.564c1.659-4.445,3.77-8.198,6.268-11.14
	c3.106-3.644,6.562-7.125,10.292-10.343c4.024-3.477,8.104-6.768,12.118-9.783c4.601-3.447,8.854-6.945,12.64-10.404
	c4.593-4.191,8.362-9.003,11.219-14.298c3.188-5.945,4.812-12.334,4.812-18.998c0-1.129-0.043-2.271-0.116-3.425
	c3.417,2.382,6.807,4.997,10.145,7.823c5.227,4.416,9.561,9.077,12.891,13.859c3.239,4.661,5.923,10.261,7.969,16.637
	c2.029,6.354,3.064,13.295,3.064,20.626c0,5.359-0.832,10.314-2.474,14.729c-1.641,4.42-3.752,8.172-6.251,11.123
	c-3.097,3.627-6.552,7.108-10.283,10.331c-4.209,3.627-8.176,6.832-12.148,9.804c-4.618,3.477-8.861,6.97-12.613,10.382
	c-4.579,4.17-8.354,8.986-11.2,14.281c-3.215,5.932-4.839,12.333-4.839,19.037c0,1.128,0.034,2.266,0.107,3.416
	c-3.39-2.365-6.78-4.98-10.14-7.814c-5.2-4.399-9.543-9.064-12.899-13.881c-3.238-4.635-5.914-10.231-7.96-16.62
	c-2.029-6.337-3.055-13.277-3.055-20.622C276.35,131.913,277.178,126.955,278.81,122.564z"/>
<path fill="#FFFBDA" stroke="#000000" stroke-miterlimit="10" d="M295.854,197.203"/>
</svg>
