<?xml version="1.0" encoding="utf-8"?>
<!-- Generator: Adobe Illustrator 16.0.0, SVG Export Plug-In . SVG Version: 6.00 Build 0)  -->
<!DOCTYPE svg PUBLIC "-//W3C//DTD SVG 1.1//EN" "http://www.w3.org/Graphics/SVG/1.1/DTD/svg11.dtd">
<svg version="1.1" id="Layer_1" xmlns="http://www.w3.org/2000/svg" xmlns:xlink="http://www.w3.org/1999/xlink" x="0px" y="0px"
	 width="402px" height="502.897px" viewBox="98.5 22.099 402 502.897" enable-background="new 98.5 22.099 402 502.897"
	 xml:space="preserve">
<polygon fill="#FFFBDA" stroke="#000000" stroke-width="6" stroke-miterlimit="10" points="184.123,166.557 239.587,171.293 
	308.441,155.228 350.411,122.341 298.276,110.012 305.115,139.49 282.986,142.714 275.636,115.319 224.91,127.424 "/>
<polygon fill="#FFFBDA" stroke="#000000" stroke-width="6" stroke-miterlimit="10" points="185.41,170.693 256.653,476.937 
	305.502,491.614 396.057,464.056 414.531,425.474 352.372,126.784 307.952,160.466 238.362,176.368 "/>
<path fill="#FFFBDA" stroke="#000000" stroke-width="6" stroke-miterlimit="10" d="M285.415,138.733c0,0,7.892,3.082,14.554-4.246
	l-19.638-76.51c0,0-5.646-3.547-8.083-2.184c-2.437,1.364-6.448,4.274-5.328,8.757C268.04,69.034,285.415,138.733,285.415,138.733z"
	/>
<g transform="translate(0.000000,2600.000000) scale(0.100000,-0.100000)">
	<path fill="#FFFBDA" stroke="#000000" stroke-width="7" stroke-miterlimit="10" d="M2927.434,24044.355
		c38.169-13.883,62.461-24.293,91.655-38.994c18.579-9.385,24.702-13.678,27.148-18.574c4.287-8.164,3.882-27.148-0.811-38.99
		l-3.472-8.979l-20.42,12.246c-34.697,20.82-82.061,42.66-140.435,64.711l-5.718,2.246l9.8,18.375
		c5.298,10.205,10.61,18.369,11.636,18.369C2897.834,24054.766,2911.716,24050.068,2927.434,24044.355z M2746.985,24006.797
		l13.262-41.035l32.666,10.615c37.559,12.045,53.481,16.328,55.117,14.697c1.631-1.432,11.23-34.703,11.23-38.785
		c0-2.246-2.256-3.877-6.543-4.691c-8.77-1.842-73.281-23.072-76.753-25.113c-1.841-1.225-0.405-9.184,6.333-34.297l8.574-32.865
		l22.451,8.578c64.102,24.287,125.547,34.293,166.367,26.943c75.737-13.266,124.316-72.67,128.193-156.777
		c1.23-29.189-2.441-47.969-14.082-71.24c-16.328-32.66-56.338-60.629-99.814-69.408c-34.092-7.139-49.81-4.898-58.999,7.758
		c-4.282,6.123-10,24.088-8.164,25.723c0.61,0.611,10.205,2.041,21.436,3.268c46.743,5.102,75.933,16.127,94.102,35.313
		c12.451,13.271,17.964,23.477,22.246,41.645c7.964,33.883-4.282,80.02-28.574,108.193c-10.405,12.041-30.005,24.287-46.953,29.801
		c-31.235,9.594-82.676,4.287-140.034-14.898c-37.563-12.455-44.902-15.717-44.902-19.395c0-1.635,1.836-11.225,4.082-21.025
		c19.595-88.188,35.518-179.027,33.882-193.115c-1.431-13.471-9.8-30.004-18.989-38.168c-22.651-19.805-51.641-20.215-89.404-1.23
		c-42.051,21.029-72.271,54.301-81.655,90.434c-6.538,25.518-2.456,59.814,10.815,88.799c13.682,30.211,45.117,68.385,74.312,90.025
		c7.554,5.717,13.882,10.82,13.882,11.225c0,2.252-8.784,35.729-13.477,51.236c-4.692,15.518-5.513,16.943-9.595,15.518
		c-14.697-4.287-60.63-24.498-92.681-40.621c-42.456-21.436-39.395-21.84-39.6,5.104c-0.205,16.738,3.677,25.107,14.287,31.436
		c9.595,5.508,71.445,33.887,91.66,41.846c11.436,4.697,16.738,7.758,16.738,10.209c0,1.836-6.328,21.842-13.882,44.703
		l-13.677,41.24l7.148,2.041c3.877,1.02,12.246,3.262,18.369,4.896c6.123,1.631,12.661,2.857,14.287,2.652
		C2732.483,24047.621,2737.995,24033.945,2746.985,24006.797z M2965.198,23442.363c16.733-8.375,26.333-25.723,28.989-51.855
		c2.446-25.309,2.246-86.963-0.2-127.584c-1.23-18.369-1.841-33.682-1.436-34.086c0.41-0.41,18.574-3.883,40.415-7.76
		c21.846-3.877,45.522-8.574,52.876-10.209c7.354-1.836,13.877-3.262,14.492-3.262c0.82,0,2.041,3.467,2.861,7.754
		c2.646,15.307,19.6,82.266,25.723,101.455c4.893,15.313,6.934,19.395,9.189,18.578c1.826-0.615,11.016-3.471,20.605-6.332
		c9.6-2.652,17.969-5.303,18.174-5.713c0.4-0.41-2.861-13.883-7.559-30.211c-10.811-38.994-24.082-95.742-22.451-96.557
		c0.605-0.406,17.354-5.514,36.953-11.436c19.6-5.918,45.518-14.287,57.764-18.779c27.354-10.406,32.051-14.902,32.051-32.047
		c0-11.02-3.057-24.701-5.518-24.701c-0.605,0-19.795,6.328-42.656,14.287c-43.281,14.701-81.865,26.537-86.963,26.537
		c-4.902,0-24.502-105.941-29.395-158.604c-1.436-16.742-1.836-17.158-17.354-11.84c-13.066,4.486-23.887,13.871-25.518,22.24
		c-0.605,3.877,0.82,21.031,3.271,38.385c4.287,30.414,19.18,112.68,21.641,118.598c0.811,2.246-2.666,3.883-14.912,7.145
		c-34.897,9.395-90.43,17.559-90.43,13.477c0-3.883-8.574-53.896-12.246-71.656c-8.574-41.439-26.333-90.84-39.805-111.25
		c-6.328-9.389-25.518-22.461-38.579-26.137c-14.702-4.082-36.948-2.031-50.63,4.701c-25.107,12.246-47.764,43.482-56.953,78.389
		c-5.303,20.211-5.918,53.076-1.016,72.057c14.897,59.408,73.892,103.096,140.444,104.721l17.759,0.416l1.221,6.322
		c0.615,3.473,1.836,28.375,2.861,55.117c2.041,51.441,1.016,99.414-2.246,105.537c-3.472,6.738-9.795,7.145-26.948,2.041
		c-33.682-10.404-70.215-27.963-117.168-56.137c-12.866-7.549-23.882-13.877-24.907-13.877c-3.262,0-8.164,16.533-8.164,27.354
		c0,8.979,1.021,12.246,5.308,17.348c7.139,8.574,29.399,22.051,62.056,37.77
		C2899.065,23442.158,2944.787,23452.979,2965.198,23442.363z M3244.66,22892.826c9.18-7.959,16.738-15.098,16.533-15.717
		c0-0.611-8.574-8.57-18.779-17.354c-56.338-48.375-155.762-146.162-203.73-200.254c-30.41-34.492-56.953-66.133-56.953-68.184
		c0-4.082,8.579-7.139,52.261-18.775c122.485-32.25,212.505-60.014,295.581-91.664c29.609-11.221,33.281-13.262,37.363-21.021
		c3.877-7.348,4.492-29.6,1.016-38.584l-2.236-5.502l-23.076,9.379c-93.281,37.359-221.689,78.594-333.35,106.764
		c-56.948,14.297-57.769,14.502-65.933,23.07c-14.692,15.107-17.964,34.293-8.774,52.051
		c11.636,22.867,134.316,154.537,210.869,226.393c49.189,46.127,79.609,73.891,81.445,74.092
		C3227.512,22907.52,3235.471,22901,3244.66,22892.826z M3378.772,22230c16.943-12.857,33.477-28.574,36.953-35.309
		c4.287-8.379,3.467-20.014-2.246-31.641c-9.189-18.379-7.754-18.988-41.436,13.883c-16.533,16.123-34.912,33.061-40.635,37.354
		l-10.811,8.164l4.492,5.098c2.656,3.066,8.574,9.6,13.672,14.906l8.984,9.596l9.385-6.334
		C3362.239,22242.051,3372.043,22235.107,3378.772,22230z M3122.59,22207.344c6.123-110.029,20.205-196.992,45.313-278.643
		c8.164-26.953,15.928-43.477,27.354-59.404c16.533-23.271,41.436-39.189,68.389-43.682
		c69.609-11.836,158.408,70.83,201.074,187.188l7.549,20.82l9.18-6.523c12.256-8.789,20.83-22.266,20.83-33.076
		c0-10.205-22.246-56.553-40.215-83.691c-23.271-35.117-55.938-71.24-83.291-91.865c-15.303-11.836-48.984-28.369-66.133-32.666
		c-68.799-17.344-134.326,14.297-168.008,81.455c-31.846,63.486-61.846,213.119-68.184,341.104l-1.426,28.584l22.256,5.313
		c12.246,2.852,22.451,5.098,22.646,4.893C3120.129,22247.148,3121.36,22229.184,3122.59,22207.344z M3319.162,22179.379
		c18.174-14.906,33.682-32.666,36.143-41.645c2.646-9.189-0.82-20.215-10.01-30.625l-7.139-8.57l-20.42,21.436
		c-11.426,11.637-28.574,28.574-38.379,37.359l-17.754,15.922l13.477,14.898l13.262,15.107l7.969-5.719
		C3300.588,22194.277,3310.803,22186.113,3319.162,22179.379z"/>
	<path fill="none" stroke="#000000" stroke-width="7" stroke-miterlimit="10" d="M2744.739,23773.672
		c-46.953-44.092-63.291-91.045-44.912-128.193c12.451-25.318,51.035-52.672,77.974-55.527c16.543-1.631,18.989,1.426,17.559,21.84
		c-3.472,44.297-29.194,175.557-34.292,175.557C2760.041,23787.348,2752.698,23781.225,2744.739,23773.672z"/>
	<path fill="none" stroke="#000000" stroke-width="7" stroke-miterlimit="10" d="M2910.486,23182.904
		c-41.846-8.164-69.404-31.234-78.784-65.938c-5.718-20.619-3.677-47.563,4.893-65.727c7.554-16.133,22.246-32.461,32.461-35.719
		c9.385-3.066,18.979-0.824,25.308,5.908c12.456,13.072,30.42,71.041,40.425,130.035c5.918,34.912,6.123,33.682-5.518,33.48
		C2923.757,23184.74,2915.393,23183.926,2910.486,23182.904z"/>
</g>
</svg>
