<?xml version="1.0" encoding="utf-8"?>
<!-- Generator: Adobe Illustrator 16.0.0, SVG Export Plug-In . SVG Version: 6.00 Build 0)  -->
<!DOCTYPE svg PUBLIC "-//W3C//DTD SVG 1.1//EN" "http://www.w3.org/Graphics/SVG/1.1/DTD/svg11.dtd">
<svg version="1.1" id="Layer_1" xmlns="http://www.w3.org/2000/svg" xmlns:xlink="http://www.w3.org/1999/xlink" x="0px" y="0px"
	 width="412px" height="412px" viewBox="0 0 412 412" enable-background="new 0 0 412 412" xml:space="preserve">
<polygon fill="#FFFBDA" points="24.5,16.5 10.5,47.5 48.5,108.5 242.5,303.5 339.348,392.965 406.5,400.5 379.5,326.5 206,149.5 
	93.5,33.5 79.5,40.5 42.5,8.918 "/>
<path d="M393.207,339.105c-5.298-17.028-14.649-32.516-27.246-45.141L100.665,28.669c-3.9-3.897-10.225-3.897-14.122,0l-1.482,1.482
	L64.097,8.918C58.467,3.214,50.786,0,42.769,0c-8.017,0-15.698,3.214-21.327,8.918l-12.3,12.468
	C-2.383,33.128-2.316,51.951,9.285,63.616l21.082,21.082l-7.756,7.67c-9.452,9.347-14.789,22.076-14.824,35.367
	c-0.039,13.292,5.224,26.048,14.622,35.45l79.93,79.926c3.901,3.901,10.225,3.901,14.126,0c3.897-3.897,3.897-10.221-0.004-14.122
	l-79.926-79.93c-11.438-11.434-11.731-29.887-0.663-41.676l119.562,119.562l21.834,21.839l14.13,14.121l102.811,102.811
	c12.62,12.601,28.111,21.947,45.14,27.25l59.949,18.588c3.538,1.097,7.396,0.145,10.018-2.477s3.573-6.48,2.478-10.022
	L393.207,339.105z M23.361,35.415l12.297-12.468c1.876-1.904,4.439-2.973,7.111-2.973c2.673,0,5.235,1.069,7.112,2.973
	l21.054,21.328L44.572,70.646L23.407,49.49C19.542,45.604,19.519,39.327,23.361,35.415z M50.103,93.362l43.502-43.505
	l105.989,105.99l-43.505,43.505L50.103,93.362z M170.215,213.474l43.501-43.505l21.188,21.187l-43.506,43.505L170.215,213.474z
	 M205.524,248.783l43.506-43.506l102.806,102.811c1.038,1.041,2.049,2.11,3.031,3.203l-43.333,43.333
	c-1.089-0.987-2.162-1.997-3.195-3.031L205.524,248.783z M345.266,373.884c-6.012-1.868-11.809-4.361-17.302-7.443l38.719-38.719
	c3.082,5.489,5.579,11.29,7.447,17.302l12.972,41.832L345.266,373.884z"/>
</svg>
