<?xml version="1.0" encoding="utf-8"?>
<!-- Generator: Adobe Illustrator 16.0.0, SVG Export Plug-In . SVG Version: 6.00 Build 0)  -->
<!DOCTYPE svg PUBLIC "-//W3C//DTD SVG 1.1//EN" "http://www.w3.org/Graphics/SVG/1.1/DTD/svg11.dtd">
<svg version="1.1" id="Layer_1" xmlns="http://www.w3.org/2000/svg" xmlns:xlink="http://www.w3.org/1999/xlink" x="0px" y="0px"
	 width="512px" height="512px" viewBox="0 0 512 512" enable-background="new 0 0 512 512" xml:space="preserve">
<polygon fill="#FFFBDA" points="364.5,35.5 312.097,81.103 306.5,101.5 291.916,112.49 279.5,112.49 251.5,138.5 102.5,293.5 
	102.5,317.934 35.5,364.5 24.5,416.5 43.789,469.268 132.5,484.5 180.5,445.5 206.5,405.5 226.9,399.114 415.509,218.388 
	404.5,207.5 424.788,203.499 477.5,154.5 485.5,86.5 456.5,38.496 408.5,23.5 "/>
<g id="outline">
	<path d="M402.96,16c-34.328-0.022-65.868,18.892-82.017,49.184c-0.112,0.224-0.224,0.448-0.312,0.672
		c-6.104,11.408-12.712,22.544-19.553,33.392c-11.87-6.77-26.981-2.634-33.752,9.237c-2.013,3.53-3.125,7.501-3.239,11.563
		c-13.056,0.47-23.53,10.945-24,24c-13.056,0.47-23.53,10.945-24,24c-13.056,0.47-23.53,10.945-24,24
		c-13.056,0.47-23.53,10.945-24,24c-13.056,0.47-23.53,10.945-24,24c-13.056,0.47-23.53,10.945-24,24
		c-13.64,0.349-24.413,11.688-24.065,25.327c0.105,4.096,1.228,8.102,3.266,11.657c-10.872,6.848-22.009,13.456-33.385,19.544
		c-0.239,0.096-0.472,0.208-0.703,0.328c-45.309,24.211-62.412,80.566-38.201,125.875s80.567,62.412,125.875,38.201
		c16.221-8.667,29.507-21.948,38.182-38.164c0.112-0.225,0.224-0.448,0.313-0.673c6.104-11.407,12.712-22.544,19.552-33.392
		c11.871,6.77,26.982,2.633,33.752-9.238c2.019-3.541,3.132-7.526,3.24-11.602c13.055-0.47,23.53-10.945,24-24
		c13.055-0.47,23.53-10.945,24-24c13.055-0.47,23.529-10.945,23.999-24c13.056-0.47,23.53-10.945,24-24
		c13.056-0.47,23.53-10.945,24-24c13.056-0.47,23.53-10.945,24-24c13.64-0.349,24.414-11.688,24.065-25.327
		c-0.104-4.096-1.227-8.102-3.265-11.657c10.872-6.848,22.008-13.456,33.384-19.544c0.24-0.096,0.472-0.208,0.704-0.328
		c45.31-24.209,62.415-80.564,38.206-125.874C468.828,34.904,437.288,15.998,402.96,16z M176.944,439.2
		c-0.112,0.208-0.214,0.421-0.304,0.64c-20.349,37.352-67.124,51.136-104.476,30.787S21.03,403.504,41.378,366.152
		c7.083-13.004,17.765-23.688,30.766-30.776c0.225-0.097,0.448-0.208,0.664-0.312c12.672-6.76,25.088-14.129,37.145-21.801
		l11.119,11.12c-12.407,7.48-25.239,14.72-38.575,21.425c-30.839,15.384-43.366,52.854-27.981,83.692
		c15.385,30.839,52.855,43.366,83.693,27.981c12.112-6.042,21.931-15.859,27.976-27.971c6.72-13.359,13.968-26.191,21.433-38.584
		l11.119,11.12C191.08,414.08,183.72,426.496,176.944,439.2z M157.44,360.8L120,410.664c-4.405,5.902-12.762,7.117-18.664,2.711
		c-5.903-4.404-7.117-12.761-2.712-18.664c0.769-1.029,1.682-1.942,2.712-2.711l49.912-37.439L157.44,360.8z M91.744,379.2
		c-12.979,9.696-15.641,28.079-5.944,41.06c9.697,12.979,28.08,15.641,41.06,5.943c2.255-1.685,4.256-3.685,5.94-5.939
		l36.063-48.088l7.08,7.08c-8.424,13.752-16.544,28.128-24.063,43.104c-11.441,22.93-39.305,32.244-62.234,20.803
		c-22.931-11.441-32.244-39.305-20.804-62.235c4.499-9.016,11.811-16.322,20.83-20.816c14.92-7.504,29.304-15.623,43.072-24.055
		l7.08,7.079L91.744,379.2z M223.032,400c-2.381,0.01-4.666-0.936-6.345-2.624L114.624,295.313
		c-3.504-3.501-3.507-9.18-0.006-12.684c1.684-1.685,3.968-2.631,6.35-2.629c2.381-0.01,4.666,0.936,6.344,2.624l102.064,102.063
		c3.504,3.501,3.506,9.18,0.005,12.684C227.698,399.056,225.413,400.002,223.032,400z M247.032,376
		c-2.381,0.01-4.666-0.936-6.345-2.624L138.624,271.313c-3.504-3.501-3.507-9.18-0.006-12.684c1.684-1.685,3.968-2.63,6.35-2.629
		c2.381-0.009,4.666,0.936,6.344,2.624l102.064,102.063c3.504,3.501,3.506,9.18,0.005,12.684
		C251.698,375.056,249.413,376.002,247.032,376z M271.031,352c-2.38,0.01-4.665-0.936-6.344-2.624L162.624,247.312
		c-3.504-3.5-3.507-9.179-0.006-12.683c1.684-1.685,3.968-2.631,6.35-2.629c2.381-0.009,4.666,0.936,6.344,2.624l102.064,102.063
		c3.504,3.501,3.506,9.18,0.005,12.684C275.698,351.056,273.413,352.002,271.031,352L271.031,352z M295.031,328
		c-2.38,0.01-4.665-0.936-6.344-2.624L186.624,223.312c-3.504-3.5-3.507-9.179-0.006-12.683c1.684-1.685,3.968-2.631,6.35-2.629
		c2.381-0.009,4.666,0.936,6.344,2.624l102.064,102.063c3.503,3.501,3.506,9.18,0.005,12.684
		C299.698,327.056,297.413,328.002,295.031,328L295.031,328z M319.031,304c-2.38,0.01-4.665-0.936-6.344-2.624L210.624,199.312
		c-3.504-3.5-3.507-9.179-0.006-12.683c1.684-1.685,3.968-2.631,6.35-2.629c2.381-0.009,4.666,0.936,6.344,2.624l102.064,102.063
		c3.503,3.501,3.506,9.18,0.005,12.684C323.698,303.056,321.413,304.002,319.031,304L319.031,304z M343.031,280
		c-2.38,0.01-4.665-0.936-6.344-2.624L234.624,175.312c-3.504-3.5-3.507-9.179-0.006-12.683c1.684-1.685,3.968-2.631,6.35-2.629
		c2.381-0.009,4.666,0.936,6.344,2.624l102.064,102.063c3.503,3.501,3.506,9.18,0.005,12.684
		C347.698,279.056,345.413,280.002,343.031,280L343.031,280z M367.031,256c-2.38,0.009-4.665-0.936-6.344-2.624L258.624,151.312
		c-3.504-3.5-3.507-9.179-0.006-12.683c1.684-1.685,3.968-2.631,6.35-2.629c2.381-0.009,4.666,0.936,6.344,2.624l102.064,102.064
		c3.503,3.5,3.506,9.179,0.005,12.683C371.698,255.056,369.413,256.001,367.031,256L367.031,256z M391.031,232
		c-2.38,0.009-4.665-0.936-6.344-2.624L282.624,127.312c-3.504-3.5-3.507-9.179-0.006-12.683c1.684-1.685,3.968-2.631,6.35-2.629
		c2.381-0.009,4.666,0.936,6.344,2.624l102.064,102.064c3.503,3.5,3.506,9.179,0.005,12.683
		C395.698,231.056,393.413,232.001,391.031,232L391.031,232z M372.176,168.864l48.08-36.056c12.974-9.705,15.624-28.089,5.92-41.063
		c-9.705-12.974-28.089-15.625-41.063-5.92c-2.243,1.678-4.234,3.668-5.913,5.911l-36.063,48.088l-7.08-7.08
		c8.424-13.752,16.544-28.128,24.063-43.088c11.43-22.937,39.288-32.265,62.225-20.835c22.936,11.429,32.264,39.288,20.835,62.224
		c-4.5,9.03-11.819,16.347-20.852,20.843c-14.92,7.504-29.304,15.624-43.071,24.056L372.176,168.864z M354.575,151.264L392,101.336
		c4.404-5.903,12.761-7.117,18.663-2.711c5.903,4.405,7.117,12.761,2.712,18.664c-0.769,1.03-1.682,1.943-2.712,2.711l-49.911,37.44
		L354.575,151.264z M439.871,176.64c-0.224,0.096-0.447,0.208-0.664,0.312c-12.672,6.76-25.088,14.128-37.144,21.8l-11.12-11.12
		c12.408-7.48,25.24-14.72,38.576-21.424c30.829-15.402,43.335-52.88,27.934-83.709c-15.402-30.829-52.88-43.335-83.71-27.933
		c-12.087,6.039-21.887,15.837-27.928,27.922c-6.72,13.36-13.968,26.192-21.432,38.584l-11.12-11.12
		c7.656-12,15.016-24.448,21.792-37.144c0.112-0.208,0.214-0.421,0.304-0.64c20.342-37.355,67.115-51.146,104.471-30.805
		c37.354,20.342,51.146,67.115,30.804,104.47c-7.084,13.01-17.771,23.701-30.778,30.791L439.871,176.64z"/>
</g>
</svg>
