<?xml version="1.0" encoding="utf-8"?>
<!-- Generator: Adobe Illustrator 16.0.0, SVG Export Plug-In . SVG Version: 6.00 Build 0)  -->
<!DOCTYPE svg PUBLIC "-//W3C//DTD SVG 1.1//EN" "http://www.w3.org/Graphics/SVG/1.1/DTD/svg11.dtd">
<svg version="1.1" id="Capa_1" xmlns="http://www.w3.org/2000/svg" xmlns:xlink="http://www.w3.org/1999/xlink" x="0px" y="0px"
	 width="45.682px" height="45.682px" viewBox="0 0 45.682 45.682" enable-background="new 0 0 45.682 45.682" xml:space="preserve">
<g>
	<g>
		<path fill="#FFFBDA" stroke="#000000" stroke-miterlimit="10" d="M37.362,26.977c-0.077-0.062-0.173-0.082-0.265-0.069
			c-0.089,0.012-0.175,0.06-0.235,0.137l-1.226,1.603c-0.004,0.009-0.005,0.017-0.011,0.022c-1.049-0.608-2.367-0.41-3.598,1.196
			c-0.832,1.087-1.014,2.877-1.03,4.09c-0.011,0.678,0.643,1.176,1.293,0.989c1.167-0.334,2.851-0.978,3.682-2.063
			c1.229-1.605,1.076-2.932,0.213-3.784c0.006-0.007,0.013-0.01,0.02-0.016l1.226-1.604C37.549,27.32,37.52,27.096,37.362,26.977z"
			/>
		<path fill="#FFFBDA" stroke="#000000" stroke-miterlimit="10" d="M43.742,15.643c-1.347-0.708-2.31-0.426-2.831,0.321
			c-0.007-0.002-0.01-0.007-0.015-0.011l-1.343-0.705c-0.132-0.069-0.293-0.019-0.362,0.111c-0.034,0.067-0.039,0.141-0.019,0.207
			c0.021,0.063,0.064,0.121,0.132,0.157l1.342,0.704c0.006,0.002,0.015,0.002,0.02,0.005c-0.318,0.855-0.003,1.808,1.344,2.515
			c0.785,0.411,1.897,0.398,2.768,0.297c0.715-0.084,1.121-0.858,0.784-1.493C45.15,16.978,44.528,16.055,43.742,15.643z"/>
		<path fill="#FFFBDA" stroke="#000000" stroke-miterlimit="10" d="M42.553,5.43c0.955-1.187,0.867-2.183,0.233-2.841
			c0.003-0.004,0.011-0.007,0.016-0.012l0.949-1.181c0.095-0.115,0.075-0.286-0.041-0.378c-0.059-0.047-0.128-0.065-0.195-0.059
			C43.446,0.967,43.381,1,43.334,1.059L42.382,2.24c-0.005,0.005-0.006,0.012-0.01,0.017c-0.776-0.479-1.771-0.354-2.727,0.829
			c-0.557,0.689-0.76,1.784-0.829,2.657c-0.057,0.717,0.624,1.266,1.313,1.059C40.97,6.55,41.995,6.119,42.553,5.43z"/>
		<path fill="#FFFBDA" stroke="#000000" stroke-miterlimit="10" d="M4.902,26c1.354-0.697,1.675-1.647,1.36-2.506
			c0.005-0.001,0.011-0.001,0.018-0.004l1.347-0.695c0.132-0.068,0.185-0.229,0.116-0.36c-0.035-0.066-0.093-0.112-0.156-0.134
			c-0.066-0.021-0.14-0.017-0.206,0.019l-1.346,0.693c-0.007,0.003-0.011,0.009-0.016,0.013c-0.517-0.752-1.477-1.04-2.83-0.343
			c-0.788,0.406-1.416,1.325-1.831,2.099c-0.341,0.633,0.061,1.409,0.774,1.497C3.002,26.386,4.114,26.406,4.902,26z"/>
		<path fill="#FFFBDA" stroke="#000000" stroke-miterlimit="10" d="M33.898,18.426c0.063-0.103,0.081-0.225,0.053-0.341
			c-0.027-0.117-0.103-0.217-0.205-0.279l-0.275-0.167c-0.213-0.13-0.491-0.062-0.62,0.151l-9.441,15.566l-12.711,3.108l5.962-7.578
			l0.211-0.268l0.072-0.204l5.205-14.405c0.024-0.002,0.049-0.008,0.073-0.014l1.938-0.563c0.007-0.004,0.014-0.009,0.021-0.012
			c0.48,1.113,1.662,1.737,3.604,1.171c1.313-0.381,2.521-1.714,3.256-2.68c0.41-0.54,0.182-1.328-0.454-1.564
			c-1.139-0.424-2.872-0.901-4.187-0.521c-1.943,0.563-2.606,1.72-2.418,2.918c-0.008,0.003-0.017,0-0.024,0.003l-1.514,0.438
			l1.859-5.146c0.064-0.181,0.189-0.33,0.354-0.427l6.067-3.55c0.162-0.094,0.279-0.249,0.327-0.431
			c0.047-0.182,0.021-0.374-0.074-0.536L30.265,1.88c-0.197-0.337-0.63-0.45-0.967-0.253l-6.211,3.632
			c-0.645,0.376-1.134,0.966-1.387,1.666l-4.48,12.411l-4.697-5.199l0.411-1.866c0.001-0.009-0.001-0.016,0.001-0.024
			c1.208,0.109,2.319-0.628,2.755-2.604c0.295-1.336-0.297-3.037-0.795-4.145c-0.276-0.618-1.079-0.795-1.59-0.352
			c-0.917,0.796-2.169,2.09-2.464,3.427c-0.436,1.977,0.263,3.111,1.406,3.521c-0.002,0.008-0.009,0.015-0.011,0.021l-0.301,1.37
			l-2.708-2.999L6.906,3.556C6.868,3.442,6.786,3.348,6.679,3.295C6.571,3.241,6.447,3.233,6.334,3.271L6.029,3.373
			c-0.235,0.079-0.363,0.335-0.284,0.57l2.36,7.055l8.646,9.639l-2.354,6.514L0.445,40.366c-0.287,0.27-0.448,0.65-0.444,1.048
			c0.004,0.396,0.172,0.771,0.465,1.039l2.083,1.898c0.292,0.268,0.683,0.398,1.077,0.366s0.758-0.228,1.002-0.539l4.837-6.147
			l14.728-3.604L33.898,18.426z"/>
	</g>
</g>
</svg>
