<?xml version="1.0" encoding="utf-8"?>
<!-- Generator: Adobe Illustrator 16.0.0, SVG Export Plug-In . SVG Version: 6.00 Build 0)  -->
<!DOCTYPE svg PUBLIC "-//W3C//DTD SVG 1.1//EN" "http://www.w3.org/Graphics/SVG/1.1/DTD/svg11.dtd">
<svg version="1.1" id="Layer_1" xmlns="http://www.w3.org/2000/svg" xmlns:xlink="http://www.w3.org/1999/xlink" x="0px" y="0px"
	 width="512px" height="512px" viewBox="0 0 512 512" enable-background="new 0 0 512 512" xml:space="preserve">
<path fill="#FFFBDA" d="M87.998,278.133c0,54.477,75.215,98.637,168,98.637s168.004-44.16,168.004-98.637
	s-75.219-98.641-168.004-98.641S87.998,223.656,87.998,278.133z"/>
<path fill="#F4ECBD" d="M255.998,376.77"/>
<path d="M256,383c20.848,0,82.955-8.535,82.955-8.535c14.828-4.723,28.605-10.738,40.902-17.961
	c34.918-20.5,54.145-48.332,54.145-78.371c0-25.246-13.434-48.813-38.844-68.152c-23.398-17.809-56.266-30.871-92.551-36.777
	c-5.453-0.887-10.59,2.813-11.477,8.262c-0.887,5.453,2.813,10.59,8.262,11.477c33.109,5.391,62.816,17.094,83.652,32.953
	c14.121,10.75,30.957,28.535,30.957,52.238c0,22.656-15.723,44.363-44.27,61.125C339.514,357,299.123,366.77,255.998,366.77
	c-43.121,0-83.512-9.77-113.73-27.512c-28.547-16.762-44.27-38.469-44.27-61.125c0-23.719,16.855-41.516,30.996-52.27
	c20.867-15.867,50.609-27.566,83.75-32.941c5.449-0.887,9.152-6.023,8.27-11.477c-0.797-4.906-5.043-8.398-9.859-8.398
	c-0.531,0-1.074,0.043-1.613,0.133c-36.32,5.891-69.223,18.949-92.652,36.766c-25.441,19.344-38.891,42.926-38.891,68.188
	c0,30.039,19.227,57.871,54.141,78.371c12.301,7.223,26.074,13.238,40.906,17.961C173.045,374.465,235.152,383,256,383z
	 M173.045,374.465c0,0,32.788,8.535,82.955,8.535c46.666,0,82.955-8.535,82.955-8.535"/>
<path d="M255.998,189.508c5.523,0,10-4.48,10-10v-0.016c0-5.52-4.477-9.992-10-9.992s-10,4.484-10,10.008
	C245.998,185.027,250.475,189.508,255.998,189.508z"/>
</svg>
